/* XPM */
static char *_1167_eb9b01e9562e2740da85930bb3d44077d7ac09e49dfc98368c8519c3d2a4c8b4[] = {
/* columns rows colors chars-per-pixel */
"64 64 7 1 ",
"  c black",
". c gray13",
"X c #33691E",
"o c #1B5E20",
"O c #2E7D32",
"+ c gray26",
"@ c gray62",
/* pixels */
"@@@@@            O    @@@ ++ @@@@@@@ ++ @O@                @@@@@",
"@@@@@ ..........OO... @@@ ++ @@@@@@@ ++ OO@ .............. @@@@@",
"@@@@@ ........OOo.... @@@ ++ @@@@@@@ +OOO@@ .............. @@@@@",
"@@@@O ..     OO oo .. @@@ ++ @@@@@@@ Ooo@@@ ..          .. @@@@@",
"@@@OO .. XXOOO+ oo .. @@@ ++ @@@@@@OOOooo@@ .. @@ ++ @@ .. @@@@@",
"@@@O@ ..XXX@ ++ @o .. @@@ ++ @@@@@@O ++oo@@ .. @@ ++ @@ .. @@@@@",
"@@@O@ ..XXX@ ++           ++ @@@@@XX ++           ++ @@ .. @@@@@",
"@@@OO .. @@@ +++++++++++++++ @@@@XXX +++++++++++++++ @@ .. @@@@@",
"@@@@OO.. @@@ +++++++++++++++ @@@@@@@ +++++++++++++++ @@ .. @@@@@",
"@@@@@OOO @@@                 @@@@@@@        ..       @@ .. @@@@@",
"@@@@@ .OO@@@@@@@@@ .. @@@@@@@@@@@@@@@@@O@@@ .. @@@@@@@@ .. @@@@@",
"@@@@@ ..OO@oo@@@@@ .. @@@@@@@@@@@@@@@@@OO@@ .. @@@@@@@@ .. @@@@@",
"@@@@@ .. O@oo                @@@@@@@    OO           @@ .. @@@@@",
"@@@@@ .. Ooo +++++++++++++++ @@@@@@@ ++++O++++++++++ @@ .. @@@@@",
"@@@@@ .. O@@ +++++++++++++++ @@@@@@@ ++++O++++++++++ @@ .. @@@@@",
"@@@@@ .. O@@ ++           ++ @@@@@@@ ++  O        ++ OO .. O@@@@",
"@@@@@ .. @@O ++ O@ .. @@@ ++ @@@@@@@ +oo@O@ .. @@ ++ @@ .. OO@@@",
"@@@@@ .. OOO ++ O@ .. @@@ ++ @@@@@@@ ooooO@ .. @O ++ @@ .. @O@@@",
"@@@@O .. O      OO .. @@@ ++ @@@@@@@ oo @O@ .. OO       .. @O@@@",
"@@@OO ..OO.......O... @@@ ++ @@@@@@@ ++ @O@ ...O.......... OO@@@",
"@@@OO ..O........O... @@@ ++ @@@@@@@ ++ @OO ...O..........OO@@@@",
"@@ooOOOOO        O    @@@ ++ @@@@@@@ ++ @@O   OO        OOO@o@@@",
"@ooo@@@@@@@@ ++ @O@@@@@@@ ++ @@@@@@@ ++ @@OXXOO@@ ++ @@OO@ooo@@@",
"@oo@@@@@@@@@ ++ @O@@@@@@@ ++ @@@@@@@ ++ @@XX@@@@@ ++ @OO@@@oo@@@",
"@@@@@            Ooo  @@@ ++ @@@@@@@ ++ @XXX          O    @@@@@",
"@@@@@ ..........Oooo. @@@ ++ @@@@@@@ ++ @XXX..........O... @@@@@",
"@@@@@ ..........Ooo.. @@@ ++ @@@@@@@ ++ @@@ ..........O... @@@@@",
"@@@@@ ..       OO  .. @@@ ++ @@@@@@@ ++ @@@ ..       OO .. @@@@@",
"@@@@@ .. @@@ +OO@@ .. @@@ ++ @@@@@@@ ++ @@@ .. @@ ++ O@ .. @@@@@",
"@@@@@ .. @@@ +O @@ .. @@@ ++ @@@@@@@ ++ @@@ .. @@ ++ O@ .. @@@@@",
"@@@@@ .. @@@ O+           ++ @@@@@@@ ++           ++ @@ .. @@@@@",
"@@@@@ .. @@@XO++++++++++++++ @@@@@@@ +++++++++++++++ @@ .. @@@@@",
"@@@@@ .. @@OXXXX++++++++++++ @@@@@@@ +++++++++++++++ @@ .. @@@@@",
"@@@@@ .. @OO XXX             @@@@@@@                 @@ .. @@@@@",
"@@@@@ .. OO@@XX@@@ .. @@@@@@@@@@@@@@@@@@@OOOOOOOoO@@@@@ .. @@@@@",
"@@@@@ .. @@@@@@@@@ .. @@@@@@@@@@@@@@@@@@@O@ .. ooo@@@@@ .. @@@@@",
"@@@@O .. @@@                 @@@@@@@           ooo   @@ .. @@@@@",
"@@@OO .. @@@ +++++++++++++++ @@@@@@@ +++++++++++o+++ @@ .. @@@@@",
"@@@@OO.. @@@ +++++++++++++++ @@@@@@@ +++++++++++++++ @@ .. @@@@@",
"@@@@@OOOO@@@ ++           ++ @@@@@@@ ++           ++ @@ .. @@@@@",
"@@@@@ ..OOoOOOO @@ .. @@X ++ @@@@@@@ ++ O@@ .. @@ ++ @@ .. @@@@@",
"@@@@@ .. oo@ +OOOO .. @XX ++ @@@@@@@ ++ O@@ .. @@ ++ @@ .. @@@@@",
"@@@@@ .. oo        .. XXX ++ @@@XX@@ ++Ooo@ ..          .. @@@@@",
"@@@@@ ...o........... XX@ ++ @@@XXX@ OOOooo .............. @@@@@",
"@@@@@ ............... @OO ++ @@@@XXXXO+ @oo .............. @@@@@",
"@@@@@                 @@O ++ @@@@@OO ++ @@@                @@@@@",
"@@@@@@@@@@@@ ++ @@@@@@@@OO++ @@@@OO@ ++ @@@@@@@@@ ++ @@@@@@@@@@@",
"@@@@@@@@@@@@ ++ @@@@@@@@@O++ @@@OO@@ ++ @@@@@@@@@ ++ @@@@@@@@@@@",
"@@@@@                 @@@OO+ @@OO@@@ ++ @@@                @@@@@",
"@@@@@ ............... @@@ OO @OO@@@@ ++ @@@ .............. @@@@@",
"@@@@@ ............... @@@ +OOOO@@@@@ ++ @@@ .............. @@@@@",
"@@@@@ ..           .. @@@ ++ OOO@@@@ ++ @@@ ..          .. @@@@@",
"@@@@@ .. @@@ ++ @@ .. @@@ ++ O@XXOOO ++ OO@ .. @@ ++ @@ .. @@@@@",
"@@@@@ .. @@@ ++ @@ .. @OO ++ @@@X@@@ ++ @O@ .. @@ ++ @@ .. @@@@@",
"@@@@@ .. @@@ ++       OO  ++ @@XX@@@ ++  O        ++ @@ .. @@@@@",
"@@@@@ .. @@@ ++++++++OO+++++ @@XX@@@ ++++O++++++++++ @@ .. @@@@@",
"@@@@@ .. @@@ ++++++++O++++++ @@@X@@@ ++++O++++++++++ @@ .. @@@@@",
"@@@@@ .. @@@       ..O       @@@@@@@     O           @@ .. @@@@@",
"@@@@@ .. @@@@@@@@@ .. OO@@@@@@@@@@@@@@@@@OO .. @@@@@@@@ .. @@@@@",
"@@@@@ .. @@@@@@@@@ .. @OO@@@@@@@@@@@@@@@@@@ .. OOOOOO@@ .. @@@@@",
"@@@@@ .. @@@                 @@@@@@@                O@@ .. @@@@@",
"@@@@@ .. @@@ +++++++++++++++ @@@@@@@ +++++++++++++++OO@ .. @@@@@",
"@@@@@ .. @@@ +++++++++++++++ O@@@@@@ +++++++++++++++ @OOO. @@@@@",
"@@@@@ .. @@@ ++           ++ O@@@@@@ ++           ++ @@ OOOO@@@@"
};
