/* XPM */
static char *_0577_34ee7acb5908794f0bd7b493773028545fe7a6370c08505813caf02dc8a5fb40[] = {
/* columns rows colors chars-per-pixel */
"64 64 2 1 ",
"  c black",
". c white",
/* pixels */
".                 .                 .                 .         ",
"...             .....             .....             .....       ",
".  ..         ..  .  ..         ..  .  ..         ..  .  ..     ",
".    ..     ..    .    ..     ..    .    ..     ..    .    ..   ",
".      .. ..      .      .. ..      .      .. ..      .      .. ",
".        .        .        .        .        .        .        .",
".        .        .        .        .        .        .        .",
".        .        .        .        .        .        .        .",
".        .        .        .        .        .        .        .",
".        .        .        .        .        .        .        .",
".        .        .        .        .        .        .        .",
" ..      .      .. ..      .      .. ..      .      .. ..      .",
"   ..    .    ..     ..    .    ..     ..    .    ..     ..    .",
"     ..  .  ..         ..  .  ..         ..  .  ..         ..  .",
"       .....             .....             .....             ...",
"        ...               ...               ...               ..",
"       .....             .....             .....             ...",
"     ..  .  ..         ..  .  ..         ..  .  ..         ..  .",
"   ..    .    ..     ..    .    ..     ..    .    ..     ..    .",
" ..      .      .. ..      .      .. ..      .      .. ..      .",
".        .        .        .        .        .        .        .",
".        .        .        .        .        .        .        .",
".        .        .        .        .        .        .        .",
".        .        .        .        .        .        .        .",
".        .        .        .        .        .        .        .",
".      .. ..      .      .. ..      .      .. ..      .      .. ",
".    ..     ..    .    ..     ..    .    ..     ..    .    ..   ",
".  ..         ..  .  ..         ..  .  ..         ..  .  ..     ",
"...             .....             .....             .....       ",
"..               ...               ...               ...        ",
"...             .....             .....             .....       ",
".  ..         ..  .  ..         ..  .  ..         ..  .  ..     ",
".    ..     ..    .    ..     ..    .    ..     ..    .    ..   ",
".      .. ..      .      .. ..      .      .. ..      .      .. ",
".        .        .        .        .        .        .        .",
".        .        .        .        .        .        .        .",
".        .        .        .        .        .        .        .",
".        .        .        .        .        .        .        .",
".        .        .        .        .        .        .        .",
" ..      .      .. ..      .      .. ..      .      .. ..      .",
"   ..    .    ..     ..    .    ..     ..    .    ..     ..    .",
"     ..  .  ..         ..  .  ..         ..  .  ..         ..  .",
"       .....             .....             .....             ...",
"        ...               ...               ...               ..",
"       .....             .....             .....             ...",
"     ..  .  ..         ..  .  ..         ..  .  ..         ..  .",
"   ..    .    ..     ..    .    ..     ..    .    ..     ..    .",
" ..      .      .. ..      .      .. ..      .      .. ..      .",
".        .        .        .        .        .        .        .",
"         .        .        .        .        .        .        .",
"         .        .        .        .        .        .        .",
"         .        .        .        .        .        .        .",
"         .        .        .        .        .        .        .",
"         .        .        .        .        .        .        .",
"       .. ..      .      .. ..      .      .. ..      .      .. ",
"     ..     ..    .    ..     ..    .    ..     ..    .    ..   ",
"   ..         ..  .  ..         ..  .  ..         ..  .  ..     ",
" ..             .....             .....             .....       ",
".                ..                ...               ...        ",
" ..             .....             .....             .....       ",
"   ..         ..  .  ..         ..  .  ..         ..  .  ..     ",
"     ..     ..    .    ..     ..    .    ..     ..    .    ..   ",
"       .. ..      .      .. ..      .      .. ..      .      .. ",
"         .        .        .        .        .        .        ."
};
