/* XPM */
static char *_0469_db9e0a37a145ab285bea9f59d289ee1b870f7d60ab583aa81fd9c825be9883dd[] = {
/* columns rows colors chars-per-pixel */
"64 64 30 1 ",
"  c black",
". c #202020",
"X c #3C3C3C",
"o c gray33",
"O c DimGray",
"+ c #7C7C7C",
"@ c gray55",
"# c gray62",
"$ c gray65",
"% c #B1B1B1",
"& c #B6B6B6",
"* c #BBBBBB",
"= c gray78",
"- c gray88",
"; c #E4E4E4",
": c #E7E7E7",
"> c #EAEAEA",
", c gray93",
"< c #EFEFEF",
"1 c #F1F1F1",
"2 c #F4F4F4",
"3 c #F6F6F6",
"4 c gray97",
"5 c #F8F8F8",
"6 c #F9F9F9",
"7 c #FBFBFB",
"8 c gray99",
"9 c #FDFDFD",
"0 c #FEFEFE",
"q c white",
/* pixels */
"                                                                ",
"                                                                ",
"                                                                ",
"                                                                ",
"                                                                ",
"                                                                ",
"                                                                ",
"                                                                ",
"                                                                ",
"                                                                ",
"                                                                ",
"                                                                ",
"                                                                ",
"                                                                ",
"                                                                ",
"           ##                                                   ",
"         ######                                                 ",
"        ##X X ##                                                ",
"        #XOX:  X#                                               ",
"       ##O,X:X X##                                              ",
"       #X1,<qX:XX#                                              ",
"       #X81qqq::O##                                             ",
"       #>8qqqqq8O #                                             ",
"      ##-0qqqqqqXX#                                             ",
"      # 0qqqqqqq:X#                                             ",
"      # :qqqqqqq7 #                                             ",
"      #-:qqqqqqq- #                                             ",
"      #->8qqqqq:  #           XX                     ########   ",
"      #2-77qqq8:  #        #######                  ## XXX  #   ",
"      #  20q9877- #        #@X::.##                 # X@O,; ##  ",
"      #    oX407- #        #,:;  X##                # O1;-  X#  ",
"     ##           #        #8oqq2:O#               # X18;qq:,#X ",
"    ##            ##       #-qqqq-:#               #  77qqqq-#  ",
"   #               #       #qqqqqq4##              # -7qqqqqq#. ",
"                   #      ##qqqqqq-$#              #  Xqqqqqq#  ",
"                          #:qqqqqqq$#              # -qqqqqqq#  ",
"                          #X:qqqqq  #              ##:Oqqqqq #  ",
"          ####            #-2-qqq8; #               #7$-qqq,8## ",
"         ##.X ##         ## -7053-  #               # -qqq&-- # ",
"        ##+.:% ##        #    XX;72$#      ##       #   XO;q0$# ",
"        #X,%-  X#        #          #    ######    ##         # ",
"        #:5.qq-*##      ##          #  ##XOX- ##   #          # ",
"        #--qqqq-*#      #           #  # O:X:. ## ##          ##",
"       ##-qqqqqq*#      #           ## #X,:;q : ###            #",
"       # Xqqqqq7##                   ###X8oqqq::o#              ",
"       #-*qqqqqq#                    ## --qqqqq8 #              ",
"       #-X;qqqq #     ##X             # -:qqqqq4X#              ",
"       #-$--qq:3#    #X ##            # -qqqqqq-$#              ",
"       #  -26&--#   ##OX:##X          # :qqqqqqq$#     ##       ",
"       #    X.-2#   #O,X; #X          #-XXqqqqq- #   #O####     ",
"       #        #  ##1>-q #XX         #--2-qqq:; #  ##O:; ##    ",
"      ##        #  #X8;qqq##X        ##  -7053-  # #@,8- XX#    ",
"      #         #  #-7qqqqq#X        #     XX;72$###88;qq::##   ",
"      #         #  #-*qqqqq#.       ##           ##-7-qqqq::#   ",
"     ##         #  #-qqqqqq#        #            ##--qqqqqq:#   ",
"    ##          # ##:qqqqqq#       ##            ## qqqqqq7$#   ",
"   ###          # #-:.qqqq:#      ##             # :qqqqqqq$#   ",
"                ###-$-7qqX;#                    ##-:Xqqqqq #    ",
"                 ##  -26=-7#                    # --27qqq:8#    ",
"                #      X.-2#                   ##   -70637-#    ",
"               ##          ##                 ##      XX;72#    ",
"               #            #                 #            ##   ",
"                            #                 #             #   ",
"                                                            ##  "
};
