/* XPM */
static char *_161_eac9b66409efdb632edd14b93a5f8d8b48ebe53d387d82bb8cbffe011d1e3b17[] = {
/* columns rows colors chars-per-pixel */
"64 64 33 1 ",
"  c black",
". c #140516",
"X c #613EB0",
"o c #693BB0",
"O c #7039B0",
"+ c #9E25AF",
"@ c #9D26AF",
"# c #9C27AF",
"$ c #9E27AF",
"% c #882FB0",
"& c #8B2EB0",
"* c #8D2DB0",
"= c #9D26B0",
"- c #9C27B0",
"; c #9D27B0",
": c #9D26B1",
"> c #9C27B1",
", c #9D27B1",
"< c #9F26B0",
"1 c #9E27B0",
"2 c #9E27B1",
"3 c #9F27B1",
"4 c #9D27B2",
"5 c #9529B0",
"6 c #9B28B1",
"7 c #9D28B0",
"8 c #9D28B1",
"9 c #9D28B2",
"0 c #9E28B2",
"q c #4695EC",
"w c #FCECBA",
"e c #FEF9CA",
"r c None",
/* pixels */
"rrrrrrrrrrrrrrrrrrrrrrrrrrrrrrrrrrrrrrrrrrrrrrrrrrrrrrrrrrrrrrrr",
"rrrrrrrrrrrrrrrrrrrrrrrrrrrrrrrrrrrrrrrrrrrrrrrrrrrrrrrrrrrrrrrr",
"rrrrrrrrrrrrrrrrrrrrrrrrrrrrrrrrrrrrrrrrrrrrrrrrrrrrrrrrrrrrrrrr",
"rrrrrrrrrrrrrrrrrrrrrrrrrrrrrrrrrrrrrrrrrrrrrrrrrrrrrrrrrrrrrrrr",
"rrrrrrrrrrrrrrrrrrrrrrrr2r;rrrr===. 22rrrrrrrrrrrrrrrrrrrrrrrrrr",
"rrrrrrrrrrrrrrrrrrrrrrr2r;;;-2,,.    rrrrrrrr=:rrrrrrrrrrrrrrrrr",
"rrrrrrrrrrrrrrrrrrrrrrr,;;;;;42@.X%X @<<rrrr#:r;;2rrrrrrrrrrrrrr",
"rrrrrrrrrrrrrrrrrrrrrrrr;;;;;4;  XXX ;;2rrr>,2;;;;2rrrrrrrrrrrrr",
"rrrrrrrrrrrrrrrrrr2rrrrr;;;;;;; XX-X ;@;,2r>2;;;;;;rrrrrrrrrrrrr",
"rrrrrrrrrrrrrrr2<r2rrr=;;;;;0;; X---  ;+r=,#;;;;;;2rrrrrrrrrrrrr",
"rrrrrrrrrrrrrrr2<;;rrr23;;;;;;; ----- ;;;;;;;;;;;$rrrrrrrrrrrrrr",
"rrrrrrrrrrrrrrr2;;;;#$$,;;;;;;;.X---X ;;;;4;;;;;;=rrrrrrrrrrrrrr",
"rrrrrrrrrrrrrrr;;;;;;1;;;4;;;;  XX-Xo ;;;;4;;;;;;r:rrrrrrrrrrrrr",
"rrrrrrrrrrrrrrr=;;;;;1$;;;;;;, X%%*XX  ;;;4;;r;;,;rrrrrrrrrrrrrr",
"rrrrrrrrrrrrrrr+;;;r;1;;;;;;2r XoXoX%% ;;;;;;;;;;,rrrrrrrrrrrrrr",
"rrrrrrrrrrrrrr23;;rr;1;;;;;=2  ooX%XXo  ;;;4;;;;,rrrrrrrrrrrrrrr",
"rrrrrrrrrrrrrr23;;;;;;;;;;+2, XX%XXXXXX  ;;;;;;22rrrrrrrrrrrrrrr",
"rrrrrrrrrrrrrr33;;;;;;;;;;rr  X%XX-X%XoX  ;;;0;=rrrrrrrrrrrrrrrr",
"rrrrrrrrrrrrrr3+;;;;;;;;;=r, XXXX---X%XXX. ;;;;rr2rrrrrrrrrrrrrr",
"rrrrrrrrrrrrrr;;;;;;;1;;+r,  XXX-----%XoXX ;;;;rrrrrrrrrrrrrrrrr",
"rrrrrrrrrrrrr3;;;;r;;0;$2,  XXXoX---XXooX%  @;;2r2rrrrrrrrrrrrrr",
"rrrrrrrrrrrr,;8;;;;;;;;=rr XoX%XXX-XoXX%XXX  ;;1r=2rrrrrrrrrrrrr",
"rrrrrrrrrrrr-r;;;;;;4;$2, .XXXXX%%&XXX%XX-X% .;07;=rrrrrrrrrrrrr",
"rrrrrrrrrrrrr;;;;;;44;;  .oX%XXoXXoo%%XX---X%  .;;;,,rrrrrrrrrrr",
"rrrrrrrrrrrr2;;;;;40;.  XX%XXXXXXoXXXXX-----%oX  ;;;;2rrrrrrrrrr",
"rrrrrrrrrrrr;;;;;4;   XXX%XX-X%XOoX%XXOX---XooX%X .;;;rrrrrrrrrr",
"rrrrrrrrrrr,r;;;44  %XoXXXX---X%X%XXX%XXX-XoX%XXXX  ;,3rrrrrrrrr",
"rrrrrrrrrrrrrr;>;  -X%XXXX-----%%XX-X%X&%&XX%XX-X%X.;;3,rrrrrrrr",
"rrrrrrrrrrrrrr67  ---%XXXoX---XXXX---X%XXoX%%X---X  ;;;,rrrrrrrr",
"rrrrrrrrrrrrrr=r ---XXXX%XXX-XoXX-----%XXXXXX---   ;;;;;;rrrrrrr",
"rrrrrrrrrrrrrr2r  -XoXXXXX%%&XXXoX---XXXXXXXoX-  ;;;;;;;,2rrrrrr",
"rrrrrrrrrrrrrr22,     XXXXXXoX%5XXX-XoXXXXX     ;;03;;;;;3rrrrrr",
"rrrrrrrrrrrr<rrrr73;;  XXXXXXXXXX%%&XX      ;;;;;;$3;;;;;,rrrrrr",
"rrrrrrrrrrr2<r;2,22=;;       XXXXXXoX  rrr,;;;;;;;3;r;;;;,rrrrrr",
"rrrrrrrrrrrr2;;;2,$;$;;;;;;;    XXX   rrr;;;;r;;;#1+;;;;;3rrrrrr",
"rrrrrrrrrrrr;;;;;;r,;;;;;;;;;;      rrr,;;=;;;;;321=;;;;;3rrrrrr",
"rrrrrrrrrrrr;;;;;;rrr3;;;;;;;; ee ,>r2;;r;;;;;;;,,;;;;;;;2rrrrrr",
"rrrrrrrrrrrr;;;;;;3rr2;;;;;;;# eq -r;;,;;;;r;;;2r,2;;;;;;2rrrrrr",
"rrrrrrrrrrrr2;;;;;;rr33;;;;;;  eq 2;;r;;;;rr;;<2,2r;;;;;;rrrrrrr",
"rrrrrrrrrrrr2;;;;;;rr$+;;;;;; eee ;,;;;;;;r;;,rrrr;;;;;;,rrrrrrr",
"rrrrrrrrrrrr2;;;;;;;r;;;;;;;3 ee  r;;;;;;;;;,rr,r2;;;;;8rrrrrrrr",
"rrrrrrrrrrrrr2;;;;;;4;;;;;;;  qe ;;;;;4;0;#@rr,rr,r;;;r2rrrrrrrr",
"rrrrrrrrrrrrr2;;;;;;4;r;;;;; eqe ;;;;;1;;@r2,,rrrrr,;-rrrrrrrrrr",
"rrrrrrrrrrrrrr2;;;;;;4rr;;;  ee  ;;;;018;$;,=rrrrrrrrrr,rrrrrrrr",
"rrrrrrrrrrrrrr22;;;;;;;r;;3 ee  ;;;;;;2;;;;,rrrrrrrrrrrrrrrrrrrr",
"rrrrrrrrrrrrrr,,#;;;;;;;r=  ee ;;;;;,=;;;;;;rrrrrrrrrrrrrrrrrrrr",
"rrrrrrrrrrrrrrrr,;;44;;;;  ee  ;;;;,r2;;;;;;;2rrrrrrrrrrrrrrrrrr",
"rrrrrrrrrrrrrrrrr$9;4;;;  eee ;;;;r2;,;;;;;;;;rrrrrrrrrrrrrrrrrr",
"rrrrrrrrrrrrrrrrr3;;;;   wqe  ;;;+r,,r2;;;;;;;;rrrrrrrrrrrrrrrrr",
"rrrrrrrrrrrrrrrrr3;;;  eeqqe ;;;3r,rrr22;;;;;;rrrrrrrrrrrrrrrrrr",
"rrrrrrrrrrrrrrrrr2;;  eeeqe  ;;;#,rrrr,;2;;;;rrrrrrrrrrrrrrrrrrr",
"rrrrrrrrrrrrrrrrr2;; eeeeee ;;;3rrrrrrrr,;;;6rrrrrrrrrrrrrrrrrrr",
"rrrrrrrrrrrrrrrrrr; qeeqeee ;;;,,rrrrrrrrrr2,,-rrrrrrrrrrrrrrrrr",
"rrrrrrrrrrrrrrrrrr; qeqqeee ;;2rrrrrrrrrrrrrrrrrrrrrrrrrrrrrrrrr",
"rrrrrrrrrrrrrrrrrr2 eeqqeqe ;<2,rrrrrrrrrrrrrrrrrrrrrrrrrrrrrrrr",
"rrrrrrrrrrrrrrrrrr2 eeeeqq  ,rrrrrrrrrrrrrrrrrrrrrrrrrrrrrrrrrrr",
"rrrrrrrrrrrrrrrrrr, qqeeqw ,rr,rrrrrrrrrrrrrrrrrrrrrrrrrrrrrrrrr",
"rrrrrrrrrrrrrrrrrrr   eee  rr,rrrrrrrrrrrrrrrrrrrrrrrrrrrrrrrrrr",
"rrrrrrrrrrrrrrrrrrrrr     3,,rrrrrrrrrrrrrrrrrrrrrrrrrrrrrrrrrrr",
"rrrrrrrrrrrrrrrrrrrrrrrrrrrrrrrrrrrrrrrrrrrrrrrrrrrrrrrrrrrrrrrr",
"rrrrrrrrrrrrrrrrrrrrrrrrrrrrrrrrrrrrrrrrrrrrrrrrrrrrrrrrrrrrrrrr",
"rrrrrrrrrrrrrrrrrrrrrrrrrrrrrrrrrrrrrrrrrrrrrrrrrrrrrrrrrrrrrrrr",
"rrrrrrrrrrrrrrrrrrrrrrrrrrrrrrrrrrrrrrrrrrrrrrrrrrrrrrrrrrrrrrrr",
"rrrrrrrrrrrrrrrrrrrrrrrrrrrrrrrrrrrrrrrrrrrrrrrrrrrrrrrrrrrrrrrr"
};
