/* XPM */
static char *_5aaf23771e14902a4131486c455218b8TbBS0O4F6F57fvo[] = {
/* columns rows colors chars-per-pixel */
"64 64 70 1 ",
"  c #795548",
". c #477162",
"X c #3EB16B",
"o c #3BB373",
"O c #35B57E",
"+ c #3AB57A",
"@ c #4BB04F",
"# c #4BAF50",
"$ c #4AAF52",
"% c #4DAF50",
"& c #4CAF52",
"* c #4AB052",
"= c #4EB050",
"- c #48B057",
"; c #4CB154",
": c #47B05A",
"> c #45B05C",
", c #45B15D",
"< c #49B058",
"1 c #48B159",
"2 c #41B163",
"3 c #40B166",
"4 c #0F8E81",
"5 c #0B9183",
"6 c #029588",
"7 c #009688",
"8 c #009789",
"9 c #00968A",
"0 c #009888",
"q c #00988B",
"w c #00998D",
"e c #009A8C",
"r c #009A90",
"t c #009B91",
"y c #009B92",
"u c #009D93",
"i c #009F98",
"p c #00A19D",
"a c #2DB68C",
"s c #28B795",
"d c #22B69D",
"f c #22B89F",
"g c #00A4A3",
"h c #00A9AB",
"j c #1BB8A9",
"k c #00AEB5",
"l c #00B0BB",
"z c #13B9B5",
"x c #00B4C2",
"c c #0ABAC3",
"v c #00B7CA",
"b c #00BCD4",
"n c #20C4D9",
"m c #3CCCDE",
"M c #54D2E2",
"N c #A6E8F0",
"B c #B1EBF2",
"V c #B6ECF3",
"C c #BBEDF4",
"Z c #C7F0F6",
"A c #E0F7FA",
"S c #E4F8FA",
"D c #E7F9FB",
"F c #EAF9FB",
"G c #EDFAFC",
"H c #F4FCFD",
"J c #F6FDFD",
"K c #F7FDFD",
"L c #FBFEFE",
"P c white",
/* pixels */
"bbbbbbbbbbbPPPPPHbbbbbbbbbmGmSAbmmbbbbbbbbbbbbbAAPPPLPCmbbbbbbbb",
"bbbbbbbbbbmPPPPPNbbbbbbbbbAAAPbHbmnbbbbbbbbbbbbbPPPPPPPPPDCmnbbb",
"bbbbbbbbbAnbPPPmbbbbbbbbbbAAPPPAPmmbbbbbbbbbbbbmPPPPPPPPPPANbbbb",
"bbbbbbbbbNbAAPbnbbbbbbbbbbbPPPPPLHbnbbbbbbbbbbAmmPPPPPPPPPPNbbbb",
"bbbbbbbbbbbNNZbAAbbbbbbbbbmPPPPPPANbbbbbbbbbbbAADDPPPPPPPPbbbbbb",
"bbbbbbbbbbbbbnbNNbbbbbbbbAmmPPPPPPNbbbbbbbbbbbbALPPPPPPPPmnbbbbb",
"bbbbbbxxxxxxxbbbbbbbbbbbbAAASPPPPbbbbbbbbbbbbbbbbAPPPPPJVbbbmnbb",
"bbbbxkkxxxxbbxbbbbbbxbbbbbbHLPFPAnbbbbbbbbbbbbbbbbbmmDLPPLJBbbbb",
"bbbkghwwwwwwtkkxbbxxkbbbbbbbbCCHLAbbbbbbxxxbbbbbbbbbbbbbbmMnANbm",
"bbkgt88wtwwkxtxxkhgxtbbkxbbbbbbnbNNbbbkhhxkkxxxxbbbbbbbbbbANbbbb",
"bhi888778777888kgiwr8khhxbbbbbbbbbbbkpwgwwwhkkbxkxbbbbbbbANbPPAN",
"hh68t87788778888w8888gwrwbxxbbbbbbxgyi8786w8weewhkkxbbbbbbbPPPPA",
"h88r77777777877777887768wxxxbbbbbkiyww77887788tw88khxbbbbbPPPPPP",
"8868777777778777778876868ttkxbbbkh6688768877887788t8xxxbbmnPPPPb",
"t88877777777777777777768886wxbbxh8688668686767778688pkxbANbbPPmn",
"868877777778777777777768886wxbbx888686868686777068688wxxbbAHJVbb",
"6868677788686877777777777776xbbr8877777778778888877778wkbbbbmnAH",
"6686777788888677777777777778xbbt87777777887788668677778kbbbbbbbb",
"w86877776g888677777777777768kbbr88777777887786687877777xkxbbbbbb",
"88867777886w8677777777777687kbb868777777867777867887777whxbbbbbb",
"8777777788677786777777776777xxrw877777777777868877877777rlxbbbxx",
"8777777787867768777777778677yxr9677777777777  6677877777wtxbbkkx",
"8877777777777786777777776888wby9777777788877   67877777768xbkktt",
"7677777777777768777777776688rbbr77777  86877   87877777788bxh6tt",
"7777777777778886777777777777lvr9w8886  8t88   86868868888tbx9yr8",
"7777777777778886777777777777xxtyw8888    44   8968668686xbbr9b88",
"77776786888kr9887777777777778ibxt886t        yyb 468688w6ybr8686",
"7777686886xtrb  w777777777788kkxbbxxt84      bb   br88688ybt8868",
"778886868.r9yb  bt6868777777778gxvbbbbb           bbbxxtwyb68868",
"77886888488tbb  rtx876777777778tibbbbbbbb        bbbbbbbbby88686",
"886488bx 4tbb   tt48777777777778gbbbbbbbb    bbbbbbbbbbbbbtx7768",
"888464bb   bb  bbtw877777777777wbbbbbbbbb    bbbbbbbbbbbbbwx7776",
"bxx484bbb      bbb487788686688rvbbbbbbbb     bbbbbbbbbbbbbtxt888",
"bbbb   bbb    bbbb  w788868886xbbbbbbbbb     bbbbbbbbbbbbbtgtt88",
"bbbb          bb    bb88688688twgbbbbbbb     bbbbbbbbbbbbbbby88i",
"bbbbb               bbbb868888wtbbbbbbbb     bbbbbbbbbbbbbbbbbxv",
"bbbbb             bbbbbbbbkx88tzczzczzcz       bbbbbbbbbbbbbbbbb",
"bbbbbb         zdzzzzzzzzzddjajzzczzczz         zbbbbbbbbbbbbbbb",
"bbbbbb        afasaaaaO+asjdfss<3<&X::          zdbbbbbbbbbbbbbb",
"bbbbfff       o:&#;;%%*%=&&%%#%:<X3:o    ,  ,d   bfzbbbbbbbbbbbb",
"bbaaaa#       %#%%#%#%#%#%#&&%#&%#%#%   #%#%#%   ,fzzbbbbbbbbbbb",
"fdoa==-%      ##%%%#%#%#%#%#%#%#%%#%#%#%%#%#%##%&&#affzzbbbbzbbb",
"oa####%%      #%%%#%#%#%#%#%#%#%%#%#%#%##%#%#%#%%%%%aazzzzzbzbbb",
"==#*#%#%      %#%#%#%#%#%#%#%#%##%#%#%#%%#%#%#%##%%%*<&,zs+b<zbz",
"###%#%#%      #%#%#%#%#%#%#%#%#%%#%#%#%##%#%#%#%%#%##%X=:,&d#zbz",
",#%#%#%#      %#%#%#%#%#%#%#%#%##%#%#%#%%#%#%#%##%#%%#@=<&%a&<3f",
"###%#%#%      #%#%#%#%#%#%#%#%#%%#%#%#%##%#%#%#%%#%##%#%#%%##%,<",
"##%#%#%#      %#%#%#%#%#%#%#%#%##%#%#%#%%#%#%#%##%#%%#%#%*%#%%##",
"#%#%%#%        ##%#%#%#%#%#%#%#%%#%#%#%#%#%#%#%#%#%#%#%#%#%#%#%#",
"#&%##%          %#%#%#%#%#%#%#%##%#%#%#%#%#%#%#%#%#%#%#%#%#%#%%#",
"%##%        #    %#%#%#%#%#%#%#%%#%#%#%#%#%#%#%#%#%#%#%##=%##%#%",
"#%#         %%   #%#%#%#%#%#%#%##%#%#%#%#%#%#%#%#%#%#%#%*%%%%#%#",
"%#%   %#   ##%#  %#%%#%##%#%#%#%%#%#%#%#%#%#%#%#%#%#%#%###%%#%#%",
"#%#%%##%  %%%##%#%%##%#%%#%#%#%##%#%#%#%#%#%#%#%#%#%#%#%%###%#%#",
"%#%##%##  %#%#%#%##%%#%##%#%#%#%%#%#%#%#%#%#%#%#%#%#%#%######%#%",
"#%#%%#%   #%#%#%#%###%#%%#%#%#%##%#%#%#%#%#%#%#%#%#%#%#%#%#*%#%#",
"%#%#%#%   **=*%%&#%#%#%#%#%#%#%#%#%#%#%#%#%#%#%##%#%#%#%%##%#%#%",
"#%#%#%##%#%#%%%#%##%#%#%#%#%#%#%#%#%#%#%#%#%#%#%%#%#%#%##%#%%#%#",
"%#%#%##%#%#%#%#%#%#%%#%#%#%#%#%#%#%#%#%#%#%#%#%##%#%#%#%%##%###%",
"#%#%#%%#%#%#%#%#%#%##%#%#%#%#%#%#%#%#%#%#%#%#%#%%#%#%#%##%%###%#",
"%#%##%#%#%#%#%#%#%#%#%#%%#%#%#%#%#%&%#%#%#%#&####%#%&&&#%#%#%#%#",
"#%#%%#%#%#%#%#%#%#%#%#%##%#%###%#%###%#%###%%###%#%######%%##%##",
"%#%##%#%#%#%#%#%#%%##%#%#&%#####%#####%##################*##%###",
"#%####%#%#%#%#%#%#####&,z:##-&&###-&&###-&&###-&&###&&#####*#,3*"
};
