/* XPM */
static char *_1726_96d54fbb4fae66868669be0749f30f6d3cb7a2fbd601fc36bb4fd9818c56424e[] = {
/* columns rows colors chars-per-pixel */
"64 64 7 1 ",
"  c gray13",
". c gray26",
"X c #4454A9",
"o c #6595DF",
"O c #5895E5",
"+ c white",
"@ c None",
/* pixels */
"@@@@@@@@@@@@@@@@@@@@@@@@@@@@@@@@@@@@@@@@@@@@@@@@@@@@@@@@@@@@@@@@",
"@@@@@@@@@@@@@@@@@@@@@@@@@@@@@@@@@@@@@@@@@@@@@@@@@@@@@@@@@@@@@@@@",
"@@@@@@@@@@@@@@@@@@@@@@@@@@@@@@@@@@@@@@@@@@@@@@@@@@@@@@@@@@@@@@@@",
"@@@@@@@@@@@@@@@@@@@@@@@@@@@@@@@@@@@@@@@@@@@@@@@@@@@@@@@@@@@@@@@@",
"@@@@@@@@@@@@@@@@@@@@@@@@@@@@@@@@@@@@@@@@@@@@@@@@@@@@@@@@@@@@@@@@",
"@@@@@@@@@@@@@@@@@@@@@@@@@@@@@@@@@@@@@@@@@@@@@@@@@@@@@@@@@@@@@@@@",
"@@@@@@@@@@@@@@@@@@@@@@@@@@@@@@@@@@@@@@@@@@@@@@@@@@@@@@@@@@@@@@@@",
"@@@@@@@@@@@@@@@@@@@@@@@@@@@@@@@@@@@@@@@@@@@@@@@@@@@@@@@@@@@@@@@@",
"@@@@@@@@@@@@@@@@@@@@@@@@@@@@@@@@@@@@@@@@@@@@@@@@@@@@@@@@@@@@@@@@",
"@@@@@@@@@@@@@@@@@@@@@@@@@@@@@@@@@@@@@@@@@@@@@@@@@@@@@@@@@@@@@@@@",
"@@@@@@@@@@@@@@@@@@@@@@@@@@@@@@                     @@@@@@@@@@@@@",
"@@@@@@@@@@@@@@@@@@@@@@@@@@@@@                       @@@@@@@@@@@@",
"@@@@@@@@@@@@@@@@@@@@@@@@@@@@@   @@@@@@@@@@@@@@@@@@  @@@@@@@@@@@@",
"@@@@@@@@@@@@@@@@@@@@@@@@@@@@@   @@@@@@@@@@@@@@@@@@  @@@@@@@@@@@@",
"@@@@@@@@@@@@@@@@@@@@@@@@@@@@@   @@@@@@@@@@@@@@@@@@  @@@@@@@@@@@@",
"@@@@@@@@@@@@@@@@@@@@@@@@@@@@     @@@@@@@@@@@@@@@@@  @@@@@@@@@@@@",
"@@@@@@@@@@@@@@@@@@@@@@@@@@@       @@@@@@@@@@@@@@@@  @@@@@@@@@@@@",
"@@@@@@@@@@@@@@@@@@@@@@@@@@         @@@@@@@@@@@@@@@  @@@@@@@@@@@@",
"@@@@@@@@@@@@@@@@@@@@@@@@@@@@@@@@@@@@@@@@@@@@@@@@@@  @@@@@@@@@@@@",
"@@@@@@@@@@@@@@@@@@@@@@@@@@@X@X@@@X@@@@@@@@@@@@@@@@  @@@@@@@@@@@@",
"@@@@@@@@@@@@@@@@@@@@@@@@@@@@@@@@@@@@@@@@@@@@@@@@@@  @@@@@@@@@@@@",
"@@@@@@@@@@@@@@@@@@@@@@@@@@@@@@@@@@@@@@@@@@@@@@@@@@  @@@@@@@@@@@@",
"@@@@@@@@@@@@@@@@@@@@@@@@@@X@@@X@@@X@@@@@@@@@@@@@@@  @@@@@@@@@@@@",
"@@@@@@@@@@@@@@@@@@@@@@@@@@@@@@@@@@@@@@@@@@@@@@@@@@  @@@@@@@@@@@@",
"@@@@@@@@@@@@@@@@@@@@@@@@@@@@@@@@@@@@@@@@@@@@@@@@@@  @@@@@@@@@@@@",
"@@@@@@@@@@@@@@@@@@@@@@@@@X@@@X@X@@@X@@@@@@@@@@@@@@  @@@@@@@@@@@@",
"@@@@@@@@@@@@@@@@@@@@@@@@@@@X@@@@@X@@@@@@@@@@@@@@@@  @@@@@@@@@@@@",
"@@@@@@@@@@@@@@@@@@@@@@@@@@@@@@@@@@@@@@@@@@@@@@@@@@  @@@@@@@@@@@@",
"@@@@@@@@@@@@@@@@@@@@@@@@X@@@X@@@X@@@X@@@@@@@@@@@@@  @@@@@@@@@@@@",
"@@@@@@@@@@@@@@@@@@@@@@@@@@@@@@@@@@@@@@@@@@@@@@@@@@  @@@@@@@@@@@@",
"@@@@@@@@@@@@@@@@@@@@@@@@@@@@@@@@@@@@@@@@@@@@@@@@@@  @@@@@@@@@@@@",
"@@@@@@@@@@@@@@@@@@@@@@@X@@@X@X@@@X@@@X@@@@@@@@@@@@  @@@@@@@@@@@@",
"@@@@@@@@@@@@@@@@@@@@@@@@@X@@@@@@@@@@@@@@@@@@@@@@@@  @@@@@@@@@@@@",
"@@@@@@@@@@@@@@@@@@@@@@@@@@@@@@X@@@@@@@@@@@@@@@@@@@  @@@@@@@@@@@@",
"@@@@@@@@@@@@@@@@@@@@@@@@X@@@X@@@X@@@X@@@@@@@@@@@@@  @@@@@@@@@@@@",
"@@@@@@@@@@@@@@@@@@@@@@@@@@@@@@@@@@@@@@@@@@@@@@@@@@  @@@@@@@@@@@@",
"@@@@@@@@@@@@@@@@@@@@@@X@@@X@@@X@@@@@@@X@@@@@@@@@@@  @@@@@@@@@@@@",
"@@@@@@@@@@@@@@@@@@@@@@@@X@@@@@@@X@@X@@@@@@@@@@@@@@  @@@@@@@@@@@@",
"@@@@@@@@@@@@@@@@@@@@@@@@@@@@@@@@@@@@@@@X@@@@@@@@@@  @@@@@@@@@@@@",
"@@@@@@@@@@@@@@@@@@@@@X@@@X@@@@X@@@X@@@@@@@@@@@@@@@  @@@@@@@@@@@@",
"@@@@@@@@@@@@@@@@@@X@@@@@@@@@@@@@@@@@@@X@@@X@@@@@@@  @@@@@@@@@@@@",
"@@@@@@@@@@@@@@@@@@@@@@@@@@@X@@@@@@@@@@@@@@@@@@@@@@  @@@@@@@@@@@@",
"@@@@@@@@@@@@@          X          X                  @@@@@@@@@@@",
"@@@@@@@@@@@  ++++++++++++++++++++++++X++++++++++++  +  @@@@@@@@@",
"@@@@@@@@@@ +++oooooooooXoooooooooooooooXoooooooooo  +++ @@@@@@@@",
"@@@@@@@@@@ +oooooXooooooooooooooXoooooooooXooooooo  oo+ @@@@@@@@",
"@@@@@@@@@ +oooooooooooooooXoooooooooooooooooXooooo  ooo+ @@@@@@@",
"@@@@@@@@@ ooooooooooooXooooooXooooooXooooooooooXoo  oooo @@@@@@@",
"@@@@@@@@@  oooXoooooooooooooooooooooooooooooooooooooooo  @@@@@@@",
"@@@@@@@@@  OOoooooXoooooooXooooooXoooooooXoooooXooooooo  @@@@@@@",
"@@@@@@@@@ +  oooooooooooooooooooooooooooooooooooooooo  + @@@@@@@",
"@@@@@@@@. +++                                        +++ @@@@@@@",
"@@@@@@@@. ++++++++++++++++++++++++++++++++++++++++++++++ @@@@@@@",
"@@@@@@@@.  ++++++++++++++++++++++++++++++++++++++++++++  @@@@@@@",
"@@@@@@@@.. ++++++++++++++++++++++++++++++++++++++++++++ @@@@@@@@",
"@@@@@@@@..  ++++++++++++++++++++++++++++++++++++++++++  @@@@@@@@",
"@@@@@@@@... ++++++++++++++++++++++++++++++++++++++++++ .@@@@@@@@",
"@@@@@@@@...  ++++++++++++++++++++++++++++++++++++++++  .@@@@@@@@",
"@@@@@@@@@...  ++++++++++++++++++++++++++++++++++++++  ..@@@@@@@@",
"@@@@@@@@@....                                        ..@@@@@@@@@",
"@@@@@@@@@@............................................@@@@@@@@@@",
"@@@@@@@@@@@..........................................@@@@@@@@@@@",
"@@@@@@@@@@@@.......................................@@@@@@@@@@@@@",
"@@@@@@@@@@@@@@@@@@@@@@@@@@@@@@@@@@@@@@@@@@@@@@@@@@@@@@@@@@@@@@@@"
};
