/* XPM */
static char *_5504_5c151c5f82aa5c40bab22f1d014634c56179cd16266a14f59d997c737fbf7437[] = {
/* columns rows colors chars-per-pixel */
"64 64 3 1 ",
"  c black",
". c gray62",
"X c white",
/* pixels */
"................................................................",
"........................XXXXXXXXXX     .........................",
".....................XXXXXXXXXXXXXXX       .....................",
"...................XXXXXXXXXXXXXXXXXXX       ...................",
".................XXXXXXXXXXXXXXXXXXXXXXX       .................",
"...............XXXXXXXXXXXXXXXXXXXXXXXXXX        ...............",
".............XXXXXXXXXXXXXXXXXXXXXXXXXXXXX         .............",
"............XXXXXXXXXXXXXXXXXXXXXXXXXXXXXXX         ............",
"...........XXXXXXXXXXXXXXXXXXXXXXXXXXXXXXXX          ...........",
"..........XXXXXXXXXXXXXXXXXXXXXXXXXXXXXXXXXX          ..........",
".........XXXXXXXXXXXXXXXXXXXXX   XXXXXXXXXXX           .........",
"........XXXXXXXXXXXXXXXXXXXX       XXXXXXXXX            ........",
".......XXXXXXXXXXXXXXXXXXXX         XXXXXXXXX            .......",
"......XXXXXXXXXXXXXXXXXXXXX         XXXXXXXXX             ......",
"......XXXXXXXXXXXXXXXXXXXX           XXXXXXXX             ......",
".....XXXXXXXXXXXXXXXXXXXXX           XXXXXXXX              .....",
".....XXXXXXXXXXXXXXXXXXXXX           XXXXXXXX              .....",
"....XXXXXXXXXXXXXXXXXXXXXXX         XXXXXXXXX               ....",
"....XXXXXXXXXXXXXXXXXXXXXXX         XXXXXXXX                ....",
"...XXXXXXXXXXXXXXXXXXXXXXXXX       XXXXXXXXX                 ...",
"...XXXXXXXXXXXXXXXXXXXXXXXXXXX   XXXXXXXXXXX                 ...",
"..XXXXXXXXXXXXXXXXXXXXXXXXXXXXXXXXXXXXXXXXX                   ..",
"..XXXXXXXXXXXXXXXXXXXXXXXXXXXXXXXXXXXXXXXXX                   ..",
"..XXXXXXXXXXXXXXXXXXXXXXXXXXXXXXXXXXXXXXXX                    ..",
"..XXXXXXXXXXXXXXXXXXXXXXXXXXXXXXXXXXXXXXX                     ..",
".XXXXXXXXXXXXXXXXXXXXXXXXXXXXXXXXXXXXXXX                       .",
".XXXXXXXXXXXXXXXXXXXXXXXXXXXXXXXXXXXXX                         .",
".XXXXXXXXXXXXXXXXXXXXXXXXXXXXXXXXXXXX                          .",
".XXXXXXXXXXXXXXXXXXXXXXXXXXXXXXXXX                             .",
".XXXXXXXXXXXXXXXXXXXXXXXXXXXXXXXX                              .",
".XXXXXXXXXXXXXXXXXXXXXXXXXXXXXXX                               .",
".XXXXXXXXXXXXXXXXXXXXXXXXXXXX                                  .",
".XXXXXXXXXXXXXXXXXXXXXXXXXXX                                   .",
".XXXXXXXXXXXXXXXXXXXXXXXX                                      .",
".XXXXXXXXXXXXXXXXXXXXXX                                        .",
".XXXXXXXXXXXXXXXXXXXXX                                         .",
".XXXXXXXXXXXXXXXXXXXX                                          .",
".XXXXXXXXXXXXXXXXXXX                                           .",
".XXXXXXXXXXXXXXXXXX                                            .",
"..XXXXXXXXXXXXXXXX                                            ..",
"..XXXXXXXXXXXXXXXX                                            ..",
"..XXXXXXXXXXXXXXX                                             ..",
"..XXXXXXXXXXXXXXX                                             ..",
"...XXXXXXXXXXXXXX             XXX                            ...",
"...XXXXXXXXXXXXX            XXXXXXX                          ...",
"....XXXXXXXXXXXX           XXXXXXXXX                        ....",
"....XXXXXXXXXXXX           XXXXXXXXX                        ....",
".....XXXXXXXXXXX          XXXXXXXXXXX                      .....",
".....XXXXXXXXXXX          XXXXXXXXXXX                      .....",
"......XXXXXXXXXX          XXXXXXXXXXX                     ......",
"......XXXXXXXXXX           XXXXXXXXX                      ......",
".......XXXXXXXXX           XXXXXXXXX                     .......",
"........XXXXXXXXX           XXXXXXX                     ........",
".........XXXXXXXX             XXX                      .........",
"..........XXXXXXX                                     ..........",
"...........XXXXXXX                                   ...........",
"............XXXXXX                                  ............",
".............XXXXXX                                .............",
"...............XXXXX                             ...............",
".................XXXX                          .................",
"...................XXX                       ...................",
".....................XX                    .....................",
".........................              .........................",
"................................................................"
};
